<svg width="24" height="24" viewBox="0 0 24 24" fill="none" xmlns="http://www.w3.org/2000/svg">
<mask id="mask0_1384_27361" style="mask-type:alpha" maskUnits="userSpaceOnUse" x="2" y="2" width="20" height="20">
<path fill-rule="evenodd" clip-rule="evenodd" d="M3.62791 22H2.69767C2.31628 22 2 21.6837 2 21.3023C2 20.9209 2.31628 20.6047 2.69767 20.6047H2.93023V6.4186C2.93023 3.6093 4.53954 2 7.34884 2H16.6512C19.4605 2 21.0698 3.6093 21.0698 6.4186V20.6047H21.3023C21.6837 20.6047 22 20.9209 22 21.3023C22 21.6837 21.6837 22 21.3023 22H20.3721H3.62791ZM19.6744 20.6047V6.4186C19.6744 4.35349 18.7163 3.39535 16.6512 3.39535H7.34884C5.28372 3.39535 4.32558 4.35349 4.32558 6.4186V20.6047H19.6744ZM10.1395 16.8837H7.34884C6.96744 16.8837 6.65116 16.5674 6.65116 16.186C6.65116 15.8047 6.96744 15.4884 7.34884 15.4884H10.1395C10.5209 15.4884 10.8372 15.8047 10.8372 16.186C10.8372 16.5674 10.5209 16.8837 10.1395 16.8837ZM13.8605 16.8837H16.6512C17.0326 16.8837 17.3488 16.5674 17.3488 16.186C17.3488 15.8047 17.0326 15.4884 16.6512 15.4884H13.8605C13.4791 15.4884 13.1628 15.8047 13.1628 16.186C13.1628 16.5674 13.4791 16.8837 13.8605 16.8837ZM10.1395 12.6977H7.34884C6.96744 12.6977 6.65116 12.3814 6.65116 12C6.65116 11.6186 6.96744 11.3023 7.34884 11.3023H10.1395C10.5209 11.3023 10.8372 11.6186 10.8372 12C10.8372 12.3814 10.5209 12.6977 10.1395 12.6977ZM13.8605 12.6977H16.6512C17.0326 12.6977 17.3488 12.3814 17.3488 12C17.3488 11.6186 17.0326 11.3023 16.6512 11.3023H13.8605C13.4791 11.3023 13.1628 11.6186 13.1628 12C13.1628 12.3814 13.4791 12.6977 13.8605 12.6977ZM10.1395 8.51163H7.34884C6.96744 8.51163 6.65116 8.19535 6.65116 7.81395C6.65116 7.43256 6.96744 7.11628 7.34884 7.11628H10.1395C10.5209 7.11628 10.8372 7.43256 10.8372 7.81395C10.8372 8.19535 10.5209 8.51163 10.1395 8.51163ZM13.8605 8.51163H16.6512C17.0326 8.51163 17.3488 8.19535 17.3488 7.81395C17.3488 7.43256 17.0326 7.11628 16.6512 7.11628H13.8605C13.4791 7.11628 13.1628 7.43256 13.1628 7.81395C13.1628 8.19535 13.4791 8.51163 13.8605 8.51163Z" fill="#C5C7DA"/>
</mask>
<g mask="url(#mask0_1384_27361)">
<rect width="24" height="24" fill="currentColor"/>
</g>
</svg>
