<svg width="24" height="24" viewBox="0 0 24 24" fill="none" xmlns="http://www.w3.org/2000/svg">
<g id="Card">
<mask id="mask0_3_990" style="mask-type:alpha" maskUnits="userSpaceOnUse" x="1" y="3" width="22" height="18">
<path id="vector" fill-rule="evenodd" clip-rule="evenodd" d="M6.5693 21H17.4307C21.3181 21 22.5 19.8324 22.4902 15.9892V8.71237C22.4967 8.67398 22.5 8.63463 22.5 8.59459C22.5 8.55456 22.4967 8.51521 22.4902 8.47682V8.00108C22.4902 4.16757 21.3084 3 17.4209 3H6.5693C2.68186 3 1.5 4.16757 1.5 8.00108V8.59459V15.9989C1.5 19.8324 2.68186 21 6.5693 21ZM2.9655 7.86486C2.98208 4.96897 3.54908 4.45946 6.5693 4.45946H17.4209C20.4412 4.45946 21.0081 4.96897 21.0247 7.86486H2.9655ZM2.96512 9.32432H21.0251V15.9892C21.0251 19.0054 20.4879 19.5308 17.4209 19.5308H6.5693C3.50233 19.5308 2.96512 19.0054 2.96512 15.9892V9.32432ZM6.13955 17.1081H8.09304C8.4935 17.1081 8.8256 16.7773 8.8256 16.3784C8.8256 15.9795 8.4935 15.6486 8.09304 15.6486H6.13955C5.73908 15.6486 5.40699 15.9795 5.40699 16.3784C5.40699 16.7773 5.73908 17.1081 6.13955 17.1081ZM14.4419 17.1081H10.5349C10.1344 17.1081 9.80232 16.7773 9.80232 16.3784C9.80232 15.9795 10.1344 15.6486 10.5349 15.6486H14.4419C14.8423 15.6486 15.1744 15.9795 15.1744 16.3784C15.1744 16.7773 14.8423 17.1081 14.4419 17.1081Z" fill="black"/>
</mask>
<g mask="url(#mask0_3_990)">
<rect id="color" width="24" height="24" fill="currentColor"/>
</g>
</g>
</svg>
