<svg width="24" height="24" viewBox="0 0 24 24" fill="none" xmlns="http://www.w3.org/2000/svg">
<g id="Money">
<mask id="mask0_3_950" style="mask-type:alpha" maskUnits="userSpaceOnUse" x="1" y="1" width="22" height="22">
<path id="vector" fill-rule="evenodd" clip-rule="evenodd" d="M1 12C1 18.0679 5.93209 23 12 23C18.0679 23 23 18.0679 23 12C23 5.93209 18.0679 1 12 1C5.93209 1 1 5.93209 1 12ZM2.53488 12C2.53488 6.7814 6.7814 2.53488 12 2.53488C17.2186 2.53488 21.4651 6.7814 21.4651 12C21.4651 17.2186 17.2186 21.4651 12 21.4651C6.7814 21.4651 2.53488 17.2186 2.53488 12ZM15.4181 12.509C14.7894 13.1691 13.9367 13.54 13.0476 13.54H10.5333V14.42H12.8381C13.0048 14.42 13.1647 14.4895 13.2826 14.6133C13.4004 14.7371 13.4667 14.905 13.4667 15.08C13.4667 15.255 13.4004 15.4229 13.2826 15.5467C13.1647 15.6705 13.0048 15.74 12.8381 15.74H10.5333V16.84C10.5333 17.015 10.4671 17.1829 10.3492 17.3067C10.2313 17.4305 10.0715 17.5 9.90476 17.5C9.73805 17.5 9.57817 17.4305 9.46029 17.3067C9.34241 17.1829 9.27619 17.015 9.27619 16.84V15.74H8.22857C8.06186 15.74 7.90198 15.6705 7.7841 15.5467C7.66622 15.4229 7.6 15.255 7.6 15.08C7.6 14.905 7.66622 14.7371 7.7841 14.6133C7.90198 14.4895 8.06186 14.42 8.22857 14.42H9.27619V13.54H8.22857C8.06186 13.54 7.90198 13.4705 7.7841 13.3467C7.66622 13.2229 7.6 13.055 7.6 12.88C7.6 12.705 7.66622 12.5371 7.7841 12.4133C7.90198 12.2895 8.06186 12.22 8.22857 12.22H9.27619V7.16C9.27619 6.98496 9.34241 6.81708 9.46029 6.69331C9.57817 6.56954 9.73805 6.5 9.90476 6.5H13.0476C13.9367 6.5 14.7894 6.87086 15.4181 7.53098C16.0468 8.19111 16.4 9.08644 16.4 10.02C16.4 10.9536 16.0468 11.8489 15.4181 12.509ZM13.0476 7.82H10.5333V12.22H13.0476C13.6033 12.22 14.1362 11.9882 14.5292 11.5756C14.9221 11.1631 15.1429 10.6035 15.1429 10.02C15.1429 9.43652 14.9221 8.87695 14.5292 8.46437C14.1362 8.05179 13.6033 7.82 13.0476 7.82Z" fill="black"/>
</mask>
<g mask="url(#mask0_3_950)">
<rect id="color" width="24" height="24" fill="#4022F5"/>
</g>
</g>
</svg>
