<svg width="24" height="24" viewBox="0 0 24 24" fill="none" xmlns="http://www.w3.org/2000/svg">
<g id="Clock">
<mask id="mask0_3_1002" style="mask-type:alpha" maskUnits="userSpaceOnUse" x="1" y="1" width="22" height="22">
<path id="vector" fill-rule="evenodd" clip-rule="evenodd" d="M1 12C1 18.0679 5.93209 23 12 23C18.0679 23 23 18.0679 23 12C23 5.93209 18.0679 1 12 1C5.93209 1 1 5.93209 1 12ZM2.53488 12C2.53488 6.7814 6.7814 2.53488 12 2.53488C17.2186 2.53488 21.4651 6.7814 21.4651 12C21.4651 17.2186 17.2186 21.4651 12 21.4651C6.7814 21.4651 2.53488 17.2186 2.53488 12ZM15.4075 15.9088C15.5302 15.9907 15.6633 16.0214 15.7963 16.0214C16.0521 16.0214 16.3079 15.8884 16.4614 15.6428C16.6763 15.2744 16.5637 14.8037 16.1954 14.5888L13.0233 12.6958C12.7061 12.5116 12.3991 11.9693 12.3991 11.6009V7.40558C12.3991 6.98604 12.0512 6.63813 11.6316 6.63813C11.2121 6.63813 10.8642 6.98604 10.8642 7.40558V11.6009C10.8642 12.5116 11.4475 13.5451 12.2354 14.0158L15.4075 15.9088Z" fill="black"/>
</mask>
<g mask="url(#mask0_3_1002)">
<rect id="color" width="24" height="24" fill="currentColor"/>
</g>
</g>
</svg>
