<svg width="24" height="24" viewBox="0 0 24 24" fill="none" xmlns="http://www.w3.org/2000/svg">
<mask id="mask0_3_938" style="mask-type:alpha" maskUnits="userSpaceOnUse" x="1" y="3" width="22" height="18">
<path fill-rule="evenodd" clip-rule="evenodd" d="M11.4315 5.26907C8.57313 5.26907 6.22459 7.43327 5.96887 10.1958C5.93209 10.5932 5.59506 10.8957 5.19368 10.8953C3.74867 10.8941 2.53488 12.0843 2.53488 13.5114C2.53488 14.9563 3.71838 16.1276 5.1783 16.1276L5.86046 16.1276C6.28431 16.1276 6.62791 16.4676 6.62791 16.8871C6.62791 17.3066 6.28431 17.6466 5.86046 17.6466L5.1783 17.6466C2.87069 17.6466 1 15.7952 1 13.5114C1 11.4612 2.55091 9.74766 4.5278 9.42926C5.1307 6.19751 7.99193 3.75 11.4315 3.75C13.9922 3.75 16.2315 5.10693 17.4574 7.13109C20.3932 7.01655 23 9.39309 23 12.3862C23 15.1144 20.9021 17.3567 18.2154 17.6207C17.7936 17.6621 17.4177 17.3574 17.3758 16.9399C17.334 16.5225 17.6419 16.1505 18.0637 16.1091C19.9732 15.9214 21.4651 14.3258 21.4651 12.3862C21.4651 10.1453 19.3707 8.36707 17.143 8.68281C16.8152 8.72927 16.4891 8.56485 16.3376 8.26622C15.4353 6.48727 13.5765 5.26907 11.4315 5.26907ZM12.7674 17.8665L14.0154 16.6314C14.3152 16.3348 14.8011 16.3348 15.1008 16.6314C15.4005 16.928 15.4005 17.4089 15.1008 17.7055L12.9044 19.8792C12.4049 20.3736 11.5951 20.3736 11.0955 19.8792L8.8992 17.7055C8.59949 17.4089 8.59949 16.928 8.8992 16.6314C9.1989 16.3348 9.68482 16.3348 9.98452 16.6314L11.2326 17.8665L11.2326 12.6112C11.2326 12.1917 11.5762 11.8517 12 11.8517C12.4238 11.8517 12.7674 12.1917 12.7674 12.6112L12.7674 17.8665Z" fill="black"/>
</mask>
<g mask="url(#mask0_3_938)">
<rect width="24" height="24" fill="currentColor"/>
</g>
</svg>
