<svg width="20" height="20" viewBox="0 0 20 20" fill="none" xmlns="http://www.w3.org/2000/svg">
<mask id="mask0_1517_8404" style="mask-type:alpha" maskUnits="userSpaceOnUse" x="0" y="3" width="20" height="14">
<path fill-rule="evenodd" clip-rule="evenodd" d="M9.52635 4.39089C7.14435 4.39089 5.18724 6.19439 4.97414 8.4965C4.94349 8.82763 4.66264 9.07971 4.32815 9.07942C3.12398 9.07839 2.11249 10.0702 2.11249 11.2595C2.11249 12.4636 3.09873 13.4396 4.31533 13.4396L4.8838 13.4396C5.23701 13.4396 5.52334 13.723 5.52334 14.0726C5.52334 14.4222 5.23701 14.7055 4.8838 14.7055L4.31533 14.7055C2.39232 14.7055 0.833416 13.1627 0.833416 11.2595C0.833416 9.55099 2.12584 8.12305 3.77325 7.85772C4.27567 5.16459 6.66002 3.125 9.52635 3.125C11.6603 3.125 13.5264 4.25578 14.5479 5.94257C16.9944 5.84712 19.1667 7.82758 19.1667 10.3218C19.1667 12.5953 17.4185 14.4639 15.1795 14.6839C14.8281 14.7185 14.5149 14.4645 14.48 14.1166C14.4451 13.7687 14.7017 13.4588 15.0532 13.4242C16.6444 13.2679 17.8877 11.9381 17.8877 10.3218C17.8877 8.45439 16.1424 6.97256 14.2859 7.23568C14.0127 7.27439 13.741 7.13738 13.6148 6.88851C12.8628 5.40606 11.3138 4.39089 9.52635 4.39089ZM10.6396 14.8888L11.6796 13.8595C11.9294 13.6123 12.3343 13.6123 12.5841 13.8595C12.8338 14.1067 12.8338 14.5074 12.5841 14.7546L10.7538 16.566C10.3375 16.978 9.66263 16.978 9.24637 16.566L7.41608 14.7546C7.16633 14.5074 7.16633 14.1067 7.41608 13.8595C7.66583 13.6123 8.07077 13.6123 8.32052 13.8595L9.36055 14.8888L9.36055 10.5093C9.36055 10.1598 9.64688 9.8764 10.0001 9.8764C10.3533 9.8764 10.6396 10.1598 10.6396 10.5093L10.6396 14.8888Z" fill="black"/>
</mask>
<g mask="url(#mask0_1517_8404)">
<rect width="20" height="20" fill="currentColor"/>
</g>
</svg>
