<svg width="20" height="20" viewBox="0 0 20 20" fill="none" xmlns="http://www.w3.org/2000/svg">
<mask id="mask0_267_22197" style="mask-type:alpha" maskUnits="userSpaceOnUse" x="3" y="1" width="14" height="18">
<path fill-rule="evenodd" clip-rule="evenodd" d="M8.7498 1.66675C7.68845 1.66675 6.73442 2.31866 6.34216 3.31196L6.07733 3.98255H5.06881C3.81454 3.98255 3.09698 5.42312 3.84683 6.4358C4.39223 7.17236 4.68686 8.06664 4.68686 8.98549V14.1578C4.68686 16.4639 6.54298 18.3334 8.83263 18.3334H11.1674C13.457 18.3334 15.3131 16.4639 15.3131 14.1578V8.98549C15.3131 8.06664 15.6078 7.17236 16.1532 6.4358C16.903 5.42312 16.1854 3.98255 14.9312 3.98255H13.9227L13.6579 3.31196C13.2656 2.31866 12.3116 1.66675 11.2502 1.66675H8.7498ZM12.8073 3.98255L12.6948 3.69777C12.4595 3.1018 11.8871 2.71065 11.2502 2.71065H8.7498C8.11299 2.71065 7.54057 3.10179 7.30521 3.69777L7.19275 3.98255H12.8073ZM14.9312 5.02645H5.06881C4.66732 5.02645 4.43764 5.48757 4.67766 5.81172C5.35655 6.72857 5.7233 7.84174 5.7233 8.98549V14.1578C5.7233 15.8874 7.11539 17.2895 8.83263 17.2895H11.1674C12.8846 17.2895 14.2767 15.8874 14.2767 14.1578V8.98549C14.2767 7.84174 14.6434 6.72857 15.3223 5.81172C15.5623 5.48757 15.3327 5.02645 14.9312 5.02645ZM9.07922 8.57931C9.07922 8.29104 8.84721 8.05736 8.561 8.05736C8.27479 8.05736 8.04278 8.29104 8.04278 8.57931V13.9609C8.04278 14.2491 8.27479 14.4828 8.561 14.4828C8.84721 14.4828 9.07922 14.2491 9.07922 13.9609V8.57931ZM11.9572 8.57931C11.9572 8.29104 11.7251 8.05736 11.4389 8.05736C11.1527 8.05736 10.9207 8.29104 10.9207 8.57931V13.9609C10.9207 14.2491 11.1527 14.4828 11.4389 14.4828C11.7251 14.4828 11.9572 14.2491 11.9572 13.9609L11.9572 8.57931Z" fill="black"/>
</mask>
<g mask="url(#mask0_267_22197)">
<rect width="20" height="20" fill="#585A71"/>
</g>
</svg>
