<svg width="24" height="24" viewBox="0 0 24 24" fill="none" xmlns="http://www.w3.org/2000/svg">
<mask id="mask0_172_12174" style="mask-type:alpha" maskUnits="userSpaceOnUse" x="4" y="2" width="16" height="20">
<path fill-rule="evenodd" clip-rule="evenodd" d="M10.4998 2C9.22615 2 8.08132 2.7823 7.6106 3.97425L7.29281 4.77896H6.08258C4.57745 4.77896 3.71639 6.50765 4.6162 7.72286C5.27068 8.60674 5.62424 9.67987 5.62424 10.7825V16.9893C5.62424 19.7566 7.85159 22 10.5992 22H13.4008C16.1484 22 18.3758 19.7566 18.3758 16.9893V10.7825C18.3758 9.67988 18.7293 8.60674 19.3838 7.72286C20.2836 6.50765 19.4225 4.77896 17.9174 4.77896H16.7073L16.3895 3.97425C15.9188 2.7823 14.7739 2 13.5003 2H10.4998ZM15.3688 4.77896L15.2338 4.43723C14.9514 3.72206 14.2645 3.25268 13.5003 3.25268H10.4998C9.7356 3.25268 9.0487 3.72206 8.76627 4.43723L8.63131 4.77896H15.3688ZM17.9174 6.03164H6.08258C5.6008 6.03164 5.32518 6.58498 5.6132 6.97396C6.42788 8.07419 6.86797 9.40999 6.86797 10.7825V16.9893C6.86797 19.0648 8.53849 20.7473 10.5992 20.7473H13.4008C15.4615 20.7473 17.132 19.0648 17.132 16.9893V10.7825C17.132 9.40999 17.5721 8.07419 18.3868 6.97396C18.6748 6.58498 18.3992 6.03164 17.9174 6.03164ZM10.8951 10.2951C10.8951 9.94915 10.6167 9.66873 10.2732 9.66873C9.92977 9.66873 9.65135 9.94915 9.65135 10.2951V16.753C9.65135 17.0989 9.92976 17.3793 10.2732 17.3793C10.6167 17.3793 10.8951 17.0989 10.8951 16.753V10.2951ZM14.3486 10.2951C14.3486 9.94915 14.0702 9.66873 13.7267 9.66873C13.3833 9.66873 13.1049 9.94915 13.1049 10.2951V16.753C13.1049 17.0989 13.3833 17.3793 13.7267 17.3793C14.0702 17.3793 14.3486 17.0989 14.3486 16.753L14.3486 10.2951Z" fill="black"/>
</mask>
<g mask="url(#mask0_172_12174)">
<rect width="24" height="24" fill="currentColor"/>
</g>
</svg>
