<svg width="24" height="24" viewBox="0 0 24 24" fill="none" xmlns="http://www.w3.org/2000/svg">
<mask id="mask0_3_906" style="mask-type:alpha" maskUnits="userSpaceOnUse" x="1" y="1" width="22" height="22">
<path fill-rule="evenodd" clip-rule="evenodd" d="M1 12C1 18.0679 5.93209 23 12 23C18.0679 23 23 18.0679 23 12C23 5.93209 18.0679 1 12 1C5.93209 1 1 5.93209 1 12ZM2.53488 12C2.53488 6.7814 6.7814 2.53488 12 2.53488C17.2186 2.53488 21.4651 6.7814 21.4651 12C21.4651 17.2186 17.2186 21.4651 12 21.4651C6.7814 21.4651 2.53488 17.2186 2.53488 12ZM10.0046 15.4382C10.1479 15.5814 10.3423 15.6633 10.547 15.6633C10.7516 15.6633 10.946 15.5814 11.0893 15.4382L16.8912 9.63629C17.1879 9.33955 17.1879 8.84838 16.8912 8.55164C16.5944 8.2549 16.1032 8.2549 15.8065 8.55164L10.547 13.8112L8.19348 11.4577C7.89674 11.1609 7.40557 11.1609 7.10883 11.4577C6.81209 11.7544 6.81209 12.2456 7.10883 12.5423L10.0046 15.4382Z" fill="black"/>
</mask>
<g mask="url(#mask0_3_906)">
<rect width="24" height="24" fill="currentColor"/>
</g>
</svg>
