<svg width="16" height="16" viewBox="0 0 16 16" fill="none" xmlns="http://www.w3.org/2000/svg">
<mask id="mask0_1683_7164" style="mask-type:alpha" maskUnits="userSpaceOnUse" x="2" y="2" width="13" height="13">
<path fill-rule="evenodd" clip-rule="evenodd" d="M11.7426 2.53563C11.0253 1.82107 9.86264 1.82151 9.14583 2.53662L2.8134 8.85394C2.36997 9.2963 2.10928 9.88847 2.0829 10.5133L2.00154 12.4399C1.9656 13.2909 2.64801 14.0005 3.5025 14.0005L5.39906 14.0006C6.074 14.0006 6.72037 13.729 7.19164 13.2474L13.479 6.82165C14.1811 6.10414 14.1737 4.95721 13.4624 4.24874L11.7426 2.53563ZM9.85431 3.24234C10.1801 2.91729 10.7086 2.91709 11.0347 3.2419L12.7545 4.95501C13.0778 5.27704 13.0811 5.79837 12.762 6.12451L11.6201 7.29155L8.70556 4.38836L9.85431 3.24234ZM7.99761 5.09462L3.52188 9.55966C3.25583 9.82508 3.09941 10.1804 3.08358 10.5553L3.00223 12.4819C2.99025 12.7656 3.21771 13.0021 3.50254 13.0021L5.39911 13.0022C5.80407 13.0022 6.19189 12.8392 6.47465 12.5502L10.9207 8.00634L7.99761 5.09462Z" fill="black"/>
</mask>
<g mask="url(#mask0_1683_7164)">
<rect width="16" height="16" fill="#2D3045"/>
</g>
</svg>
