<svg width="24" height="24" viewBox="0 0 24 24" fill="none" xmlns="http://www.w3.org/2000/svg">
<mask id="mask0_122_7122" style="mask-type:alpha" maskUnits="userSpaceOnUse" x="3" y="3" width="19" height="19">
<path fill-rule="evenodd" clip-rule="evenodd" d="M17.614 3.80339C16.5379 2.73155 14.794 2.73221 13.7188 3.80487L4.22012 13.2808C3.55499 13.9444 3.16395 14.8326 3.12437 15.7699L3.00234 18.6598C2.94843 19.9364 3.97204 21.0007 5.25378 21.0007L8.09862 21.0008C9.11103 21.0009 10.0806 20.5935 10.7875 19.871L20.2185 10.2324C21.2716 9.15615 21.2605 7.43576 20.1937 6.37305L17.614 3.80339ZM14.7815 4.86345C15.2702 4.37588 16.0629 4.37558 16.552 4.86278L19.1318 7.43245C19.6167 7.91549 19.6217 8.69749 19.143 9.1867L17.4302 10.9373L13.0584 6.58247L14.7815 4.86345ZM11.9964 7.64187L5.28285 14.3394C4.88377 14.7376 4.64915 15.2705 4.6254 15.8328L4.50337 18.7228C4.4854 19.1483 4.8266 19.5031 5.25385 19.5031L8.09869 19.5032C8.70614 19.5032 9.28787 19.2588 9.71201 18.8253L16.3811 12.0094L11.9964 7.64187Z" fill="black"/>
</mask>
<g mask="url(#mask0_122_7122)">
<rect width="24" height="24" fill="currentColor"/>
</g>
</svg>
