<svg width="20" height="20" viewBox="0 0 20 20" fill="none" xmlns="http://www.w3.org/2000/svg">
<mask id="mask0_1587_8369" style="mask-type:alpha" maskUnits="userSpaceOnUse" x="0" y="2" width="20" height="16">
<path fill-rule="evenodd" clip-rule="evenodd" d="M5.73635 17.5H14.2635C17.3759 17.5 19.1666 15.7973 19.1666 12.8378V7.16216C19.1666 4.2027 17.3759 2.5 14.2635 2.5H5.73635C2.62395 2.5 0.833252 4.2027 0.833252 7.16216V12.8378C0.833252 15.7973 2.62395 17.5 5.73635 17.5ZM2.11232 7.16216C2.11232 4.84324 3.29759 3.71622 5.73635 3.71622H14.2635C16.7022 3.71622 17.8875 4.84324 17.8875 7.16216V12.8378C17.8875 15.1568 16.7022 16.2838 14.2635 16.2838H5.73635C3.29759 16.2838 2.11232 15.1568 2.11232 12.8378V7.16216ZM8.00438 10.0649C8.55865 10.4946 9.28345 10.7054 9.99973 10.7054C10.716 10.7054 11.4408 10.4946 11.9866 10.0649L14.6555 8.03788C14.9369 7.83518 14.9796 7.44599 14.7579 7.18653C14.5447 6.91896 14.1354 6.87843 13.8625 7.08924L11.1935 9.11626C10.5455 9.61086 9.44546 9.61086 8.7974 9.11626L6.12842 7.08924C5.85555 6.87843 5.45477 6.92707 5.23307 7.18653C5.01136 7.44599 5.06252 7.82707 5.33539 8.03788L8.00438 10.0649Z" fill="black"/>
</mask>
<g mask="url(#mask0_1587_8369)">
<rect width="20" height="20" fill="currentColor"/>
</g>
</svg>
