<svg width="20" height="20" viewBox="0 0 20 20" fill="none" xmlns="http://www.w3.org/2000/svg">
<mask id="mask0_1488_9957" style="mask-type:alpha" maskUnits="userSpaceOnUse" x="0" y="0" width="20" height="20">
<path fill-rule="evenodd" clip-rule="evenodd" d="M10 19.1667C4.94342 19.1667 0.833344 15.0566 0.833344 10C0.833344 4.94342 4.94342 0.833344 10 0.833344C15.0566 0.833344 19.1667 4.94342 19.1667 10C19.1667 15.0566 15.0566 19.1667 10 19.1667ZM10 2.11241C5.65117 2.11241 2.11241 5.65117 2.11241 10C2.11241 14.3488 5.65117 17.8876 10 17.8876C14.3488 17.8876 17.8876 14.3488 17.8876 10C17.8876 5.65117 14.3488 2.11241 10 2.11241ZM10 10.6548C9.6384 10.6548 9.34525 10.3616 9.34525 10V6.50795C9.34525 6.14633 9.6384 5.85318 10 5.85318C10.3616 5.85318 10.6548 6.14633 10.6548 6.50795V10C10.6548 10.3616 10.3616 10.6548 10 10.6548ZM10.6548 13.0556C10.6548 13.4172 10.3616 13.7103 10 13.7103C9.6384 13.7103 9.34525 13.4172 9.34525 13.0556V12.6191C9.34525 12.2574 9.6384 11.9643 10 11.9643C10.3616 11.9643 10.6548 12.2574 10.6548 12.6191V13.0556Z" fill="#4022F5"/>
</mask>
<g mask="url(#mask0_1488_9957)">
<rect width="20" height="20" fill="currentColor "/>
</g>
</svg>
