<svg width="24" height="24" viewBox="0 0 24 24" fill="none" xmlns="http://www.w3.org/2000/svg">
<mask id="mask0_3_882" style="mask-type:alpha" maskUnits="userSpaceOnUse" x="10" y="3" width="4" height="18">
<path fill-rule="evenodd" clip-rule="evenodd" d="M14 4.96875C14 6.05606 13.1046 6.9375 12 6.9375C10.8954 6.9375 10 6.05606 10 4.96875C10 3.88144 10.8954 3 12 3C13.1046 3 14 3.88144 14 4.96875ZM14 12C14 13.0873 13.1046 13.9688 12 13.9688C10.8954 13.9688 10 13.0873 10 12C10 10.9127 10.8954 10.0312 12 10.0312C13.1046 10.0312 14 10.9127 14 12ZM12 21C13.1046 21 14 20.1186 14 19.0312C14 17.9439 13.1046 17.0625 12 17.0625C10.8954 17.0625 10 17.9439 10 19.0312C10 20.1186 10.8954 21 12 21Z" fill="black"/>
</mask>
<g mask="url(#mask0_3_882)">
<rect width="24" height="24" fill="#2D3045"/>
</g>
</svg>
