<svg width="24" height="24" viewBox="0 0 24 24" fill="none" xmlns="http://www.w3.org/2000/svg">
<mask id="mask0_1370_6160" style="mask-type:alpha" maskUnits="userSpaceOnUse" x="0" y="2" width="24" height="20">
<path fill-rule="evenodd" clip-rule="evenodd" d="M21.4785 15.0633L21.4601 15.0635C21.2661 15.0635 21.0721 14.9935 20.9189 14.8436L19.1423 13.1045C18.8462 12.8146 18.8462 12.3349 19.1423 12.045C19.4384 11.7552 19.9285 11.7552 20.2246 12.045L20.6944 12.5049V11.995C20.6944 7.30736 16.7939 3.48925 12.0051 3.48925C9.36052 3.48925 6.88954 4.64868 5.22519 6.67767C4.95972 6.99751 4.47981 7.04748 4.15307 6.7976C3.82633 6.53773 3.76507 6.06798 4.03055 5.74814C5.98079 3.35932 8.89083 2 12.0051 2C17.6414 2 22.226 6.48778 22.226 12.005V12.5047L22.6956 12.045C22.9917 11.7552 23.4818 11.7552 23.7779 12.045C24.074 12.3349 24.074 12.8146 23.7779 13.1045L22.0406 14.8052C21.9047 14.9581 21.7051 15.0582 21.4785 15.0633ZM4.31657 12.1649C4.12257 12.1649 3.92857 12.095 3.7754 11.945L3.31598 11.4953V11.995C3.31598 16.6826 7.21646 20.5007 12.0053 20.5007C14.6498 20.5007 17.1208 19.3413 18.7852 17.3123C19.0507 16.9925 19.5306 16.9325 19.8573 17.1924C20.184 17.4523 20.2453 17.922 19.9798 18.2419C18.0296 20.6307 15.1195 22 12.0053 22C6.36898 22 1.78438 17.5122 1.78438 11.995V11.4752L1.30441 11.945C1.0083 12.2349 0.518192 12.2349 0.222082 11.945C-0.0740275 11.6552 -0.0740275 11.1754 0.222082 10.8856L1.99874 9.14644C2.11029 9.03724 2.24938 8.96918 2.39525 8.94226C2.44538 8.93193 2.49721 8.92649 2.55018 8.92649C2.79245 8.92649 3.01078 9.0403 3.15174 9.21561L4.85774 10.8856C5.15385 11.1754 5.15385 11.6552 4.85774 11.945C4.71479 12.095 4.51057 12.1649 4.31657 12.1649ZM15.5745 12.5038C14.918 13.1636 14.0275 13.5343 13.099 13.5343H10.4734V14.4138H12.8802C13.0543 14.4138 13.2213 14.4833 13.3444 14.607C13.4675 14.7308 13.5366 14.8985 13.5366 15.0735C13.5366 15.2485 13.4675 15.4162 13.3444 15.54C13.2213 15.6637 13.0543 15.7332 12.8802 15.7332H10.4734V16.8326C10.4734 17.0076 10.4043 17.1754 10.2812 17.2991C10.1581 17.4228 9.99112 17.4923 9.81703 17.4923C9.64294 17.4923 9.47598 17.4228 9.35289 17.2991C9.22979 17.1754 9.16063 17.0076 9.16063 16.8326V15.7332H8.06663C7.89254 15.7332 7.72558 15.6637 7.60248 15.54C7.47938 15.4162 7.41023 15.2485 7.41023 15.0735C7.41023 14.8985 7.47938 14.7308 7.60248 14.607C7.72558 14.4833 7.89254 14.4138 8.06663 14.4138H9.16063V13.5343H8.06663C7.89254 13.5343 7.72558 13.4648 7.60248 13.341C7.47938 13.2173 7.41023 13.0495 7.41023 12.8746C7.41023 12.6996 7.47938 12.5318 7.60248 12.4081C7.72558 12.2844 7.89254 12.2149 8.06663 12.2149H9.16063V7.15743C9.16063 6.98248 9.22979 6.81469 9.35289 6.69098C9.47598 6.56726 9.64294 6.49776 9.81703 6.49776H13.099C14.0275 6.49776 14.918 6.86843 15.5745 7.52823C16.231 8.18803 16.5998 9.08291 16.5998 10.016C16.5998 10.9491 16.231 11.844 15.5745 12.5038ZM13.099 7.81711H10.4734V12.2149H13.099C13.6793 12.2149 14.2359 11.9832 14.6462 11.5709C15.0565 11.1585 15.287 10.5992 15.287 10.016C15.287 9.43283 15.0565 8.87353 14.6462 8.46115C14.2359 8.04878 13.6793 7.81711 13.099 7.81711Z" fill="#C5C7DA"/>
</mask>
<g mask="url(#mask0_1370_6160)">
<rect width="24" height="24" fill="currentColor"/>
</g>
</svg>
