<svg width="40" height="40" viewBox="0 0 40 40" fill="none" xmlns="http://www.w3.org/2000/svg">
<rect width="40" height="40" rx="20" fill="#D9E1FC"/>
<mask id="mask0_1683_1805" style="mask-type:alpha" maskUnits="userSpaceOnUse" x="10" y="11" width="20" height="18">
<path fill-rule="evenodd" clip-rule="evenodd" d="M21.6673 28.5418L21.6659 28.5418H16.7344C16.734 28.5418 16.7335 28.5418 16.733 28.5418C16.7326 28.5418 16.7321 28.5418 16.7317 28.5418H11.7102L11.7088 28.5418L11.7074 28.5418H10.82C10.4856 28.5418 10.2083 28.2654 10.2083 27.932C10.2083 27.5987 10.4856 27.3223 10.82 27.3223H11.0971V14.9483C11.0971 12.9727 12.1819 11.8833 14.1556 11.8833H19.2368C21.2024 11.8833 22.279 12.9727 22.279 14.9483V27.3223H25.5255V24.8415C24.5008 24.5664 23.7474 23.6342 23.7474 22.5255V20.68C23.7474 19.3548 24.824 18.2817 26.1534 18.2817C27.4828 18.2817 28.5594 19.3548 28.5594 20.68V22.5255C28.5594 23.6458 27.79 24.586 26.7489 24.85V27.3223H28.7632C29.0976 27.3223 29.3749 27.5987 29.3749 27.932C29.3749 28.2654 29.0976 28.5418 28.7632 28.5418H26.2383C26.2054 28.5472 26.1717 28.55 26.1372 28.55C26.1035 28.55 26.0704 28.5472 26.0381 28.5418H21.6687L21.6673 28.5418ZM17.3448 27.3223V24.8833C17.3448 24.5499 17.0674 24.2735 16.733 24.2735C16.3987 24.2735 16.1213 24.5499 16.1213 24.8833V27.3223H12.3205V14.9483C12.3205 13.6557 12.8751 13.1028 14.1556 13.1028H19.2368C20.5091 13.1028 21.0556 13.6557 21.0556 14.9483V27.3223H17.3448ZM26.2227 23.7105C26.843 23.6747 27.336 23.1609 27.336 22.5337V20.6882C27.336 20.0378 26.8059 19.5093 26.1534 19.5093C25.5009 19.5093 24.9708 20.0378 24.9708 20.6882V22.5337C24.9708 23.1536 25.4523 23.6627 26.0624 23.7091C26.087 23.706 26.1119 23.7044 26.1372 23.7044C26.1662 23.7044 26.1947 23.7065 26.2227 23.7105ZM14.7347 17.3629H18.7719C19.1063 17.3629 19.3836 17.0865 19.3836 16.7532C19.3836 16.4199 19.1063 16.1434 18.7719 16.1434H14.7347C14.4003 16.1434 14.123 16.4199 14.123 16.7532C14.123 17.0865 14.4003 17.3629 14.7347 17.3629ZM18.7719 20.4117H14.7347C14.4003 20.4117 14.123 20.1353 14.123 19.802C14.123 19.4686 14.4003 19.1922 14.7347 19.1922H18.7719C19.1063 19.1922 19.3836 19.4686 19.3836 19.802C19.3836 20.1353 19.1063 20.4117 18.7719 20.4117Z" fill="black"/>
</mask>
<g mask="url(#mask0_1683_1805)">
<rect x="10" y="10" width="20" height="20" fill="#4022F5"/>
</g>
</svg>
