<svg width="64" height="64" viewBox="0 0 64 64" fill="none" xmlns="http://www.w3.org/2000/svg">
<rect width="64" height="64" rx="32" fill="#F1F4FE"/>
<mask id="mask0_1683_7111" style="mask-type:alpha" maskUnits="userSpaceOnUse" x="16" y="19" width="31" height="27">
<path fill-rule="evenodd" clip-rule="evenodd" d="M34.6678 45.6669L34.6656 45.6669H26.7753C26.7745 45.6669 26.7738 45.6669 26.7731 45.6669C26.7723 45.6669 26.7716 45.6669 26.7708 45.6669H18.7365L18.7343 45.6669L18.732 45.6669H17.3121C16.7771 45.6669 16.3334 45.2246 16.3334 44.6913C16.3334 44.1579 16.7771 43.7157 17.3121 43.7157H17.7555V23.9174C17.7555 20.7564 19.4911 19.0133 22.6492 19.0133H30.7791C33.924 19.0133 35.6466 20.7564 35.6466 23.9174V43.7157H40.8409V39.7464C39.2015 39.3063 37.9959 37.8147 37.9959 36.0409V33.0881C37.9959 30.9678 39.7185 29.2507 41.8456 29.2507C43.9727 29.2507 45.6953 30.9678 45.6953 33.0881V36.0409C45.6953 37.8333 44.4642 39.3376 42.7984 39.76V43.7157H46.0213C46.5564 43.7157 47 44.1579 47 44.6913C47 45.2246 46.5564 45.6669 46.0213 45.6669H41.9814C41.9289 45.6755 41.8749 45.68 41.8197 45.68C41.7658 45.68 41.7128 45.6755 41.6611 45.6669H34.6701L34.6678 45.6669ZM27.7518 43.7157V39.8132C27.7518 39.2799 27.3081 38.8376 26.7731 38.8376C26.238 38.8376 25.7943 39.2799 25.7943 39.8132V43.7157H19.713V23.9174C19.713 21.8491 20.6004 20.9645 22.6492 20.9645H30.7791C32.8148 20.9645 33.6891 21.8491 33.6891 23.9174V43.7157H27.7518ZM41.9565 37.9369C42.949 37.8795 43.7378 37.0574 43.7378 36.0539V33.1011C43.7378 32.0604 42.8896 31.2149 41.8456 31.2149C40.8016 31.2149 39.9534 32.0604 39.9534 33.1011V36.0539C39.9534 37.0457 40.7239 37.8603 41.7001 37.9346C41.7393 37.9296 41.7792 37.9271 41.8197 37.9271C41.866 37.9271 41.9117 37.9305 41.9565 37.9369ZM23.5757 27.7807H30.0353C30.5703 27.7807 31.014 27.3385 31.014 26.8051C31.014 26.2718 30.5703 25.8295 30.0353 25.8295H23.5757C23.0407 25.8295 22.597 26.2718 22.597 26.8051C22.597 27.3385 23.0407 27.7807 23.5757 27.7807ZM30.0353 32.6588H23.5757C23.0407 32.6588 22.597 32.2165 22.597 31.6832C22.597 31.1498 23.0407 30.7076 23.5757 30.7076H30.0353C30.5703 30.7076 31.014 31.1498 31.014 31.6832C31.014 32.2165 30.5703 32.6588 30.0353 32.6588Z" fill="black"/>
</mask>
<g mask="url(#mask0_1683_7111)">
<rect x="16" y="16" width="32" height="32" fill="#4022F5"/>
</g>
</svg>
