<svg width="24" height="24" viewBox="0 0 24 24" fill="none" xmlns="http://www.w3.org/2000/svg">
<mask id="mask0_1386_35078" style="mask-type:alpha" maskUnits="userSpaceOnUse" x="1" y="2" width="22" height="20">
<path fill-rule="evenodd" clip-rule="evenodd" d="M6.88375 21.5H16.0931C19.6131 21.5 21.9768 19.1276 21.9768 15.5843V14.6951C22.5843 14.4007 23 13.7787 23 13.0578V10.9421C23 10.2259 22.5897 9.60725 21.9768 9.31054V8.40541C21.9768 5.21135 20.0019 2.91081 16.9833 2.56162C16.6559 2.51027 16.3387 2.5 16.0931 2.5H6.88375C6.5563 2.5 6.23907 2.53082 5.96279 2.5719C2.94417 2.9519 1 5.24216 1 8.40541V15.5946C1 19.1276 3.36373 21.5 6.88375 21.5ZM18.1291 11.0757C18.1359 11.0688 18.1428 11.062 18.1499 11.0552L18.1601 11.0449C18.3954 10.7984 18.7228 10.6649 19.081 10.6649H21.1797C21.3428 10.6756 21.4651 10.7884 21.4651 10.9421V13.0578C21.4651 13.1888 21.3763 13.2976 21.2678 13.3271C21.2485 13.3256 21.229 13.3248 21.2094 13.3248H19.2038C18.467 13.3248 17.8122 12.7805 17.761 12.1027C17.742 11.8609 17.7858 11.6231 17.89 11.4112C17.9505 11.2904 18.0306 11.1772 18.1291 11.0757ZM20.4419 9.12427V8.40541C20.4419 6.00216 19.0401 4.34863 16.7684 4.0816C16.523 4.04054 16.3082 4.04054 16.0934 4.04054H16.0931H6.88375C6.63816 4.04054 6.4028 4.06107 6.16745 4.09188C3.91628 4.37945 2.53489 6.0227 2.53489 8.40541V15.5946C2.53489 18.2443 4.24373 19.9595 6.88375 19.9595H16.0931C18.7331 19.9595 20.4419 18.2443 20.4419 15.5946V14.8757H19.2038C18.4961 14.8757 17.8378 14.6344 17.3202 14.2307C16.7078 13.753 16.2926 13.048 16.226 12.2464C16.1442 11.394 16.4511 10.5621 17.0651 9.95615C17.5767 9.4221 18.3032 9.12427 19.0707 9.12427H20.4419ZM13.0233 9.68919H6.88375C6.46421 9.68919 6.1163 9.34 6.1163 8.91892C6.1163 8.49784 6.46421 8.14865 6.88375 8.14865H13.0233C13.4428 8.14865 13.7908 8.49784 13.7908 8.91892C13.7908 9.34 13.4428 9.68919 13.0233 9.68919Z" fill="#C5C7DA"/>
</mask>
<g mask="url(#mask0_1386_35078)">
<rect width="24" height="24" fill="#4022F5"/>
</g>
</svg>
