<svg width="24" height="24" viewBox="0 0 24 24" fill="none" xmlns="http://www.w3.org/2000/svg">
<mask id="mask0_407_1904" style="mask-type:alpha" maskUnits="userSpaceOnUse" x="2" y="1" width="21" height="23">
<path fill-rule="evenodd" clip-rule="evenodd" d="M17.1218 7.90116H7.37818H6.09615C4.47564 7.90116 3.78846 8.58675 3.78846 10.2035V15.3198C3.78846 16.9365 4.47564 17.6221 6.09615 17.6221H7.3782L7.3782 16.0872H7.12179C6.70128 16.0872 6.35256 15.7393 6.35256 15.3198C6.35256 14.9002 6.70128 14.5523 7.12179 14.5523H8.14743H16.3526H17.3782C17.7987 14.5523 18.1474 14.9002 18.1474 15.3198C18.1474 15.7393 17.7987 16.0872 17.3782 16.0872H17.1218V17.6221H18.4038C20.0244 17.6221 20.7115 16.9365 20.7115 15.3198V10.2035C20.7115 8.58675 20.0244 7.90116 18.4038 7.90116H17.1218ZM8.91667 16.0872L15.5833 16.0872V19.4128C15.5833 21.0295 14.8961 21.7151 13.2756 21.7151H11.2243C9.60384 21.7151 8.91666 21.0295 8.91666 19.4128V18.3929L8.91667 18.3895V16.0872ZM7.3782 19.157V19.4128C7.3782 21.8891 8.7423 23.25 11.2243 23.25H13.2756C15.7577 23.25 17.1218 21.8891 17.1218 19.4128V19.157H18.4038C20.8859 19.157 22.25 17.796 22.25 15.3198V10.2035C22.25 7.72721 20.8859 6.36628 18.4038 6.36628H17.891V5.08721C17.891 2.46767 16.6705 1.25 14.0448 1.25H10.4551C7.82947 1.25 6.60895 2.46767 6.60895 5.08721V6.36628H6.09615C3.6141 6.36628 2.25 7.72721 2.25 10.2035V15.3198C2.25 17.796 3.6141 19.157 6.09615 19.157H7.3782ZM8.14741 6.36628H16.3525V5.08721C16.3525 3.34767 15.7884 2.78488 14.0448 2.78488H10.4551C8.71152 2.78488 8.14741 3.34767 8.14741 5.08721V6.36628ZM7.12179 11.9942H10.1987C10.6192 11.9942 10.9679 11.6463 10.9679 11.2267C10.9679 10.8072 10.6192 10.4593 10.1987 10.4593H7.12179C6.70128 10.4593 6.35256 10.8072 6.35256 11.2267C6.35256 11.6463 6.70128 11.9942 7.12179 11.9942Z" fill="black"/>
</mask>
<g mask="url(#mask0_407_1904)">
<rect y="-1.52588e-05" width="24" height="24" fill="currentColor"/>
</g>
</svg>
