<svg width="20" height="20" viewBox="0 0 20 20" fill="none" xmlns="http://www.w3.org/2000/svg">
<g clip-path="url(#clip0_1517_8399)">
<mask id="mask0_1517_8399" style="mask-type:alpha" maskUnits="userSpaceOnUse" x="1" y="1" width="18" height="19">
<path fill-rule="evenodd" clip-rule="evenodd" d="M14.2681 6.58432H6.14849H5.08013C3.7297 6.58432 3.15705 7.15564 3.15705 8.50293V12.7665C3.15705 14.1138 3.7297 14.6851 5.08013 14.6851H6.1485L6.1485 13.406H5.93482C5.5844 13.406 5.2938 13.1161 5.2938 12.7665C5.2938 12.4169 5.5844 12.127 5.93482 12.127H6.78952H13.6271H14.4818C14.8323 12.127 15.1229 12.4169 15.1229 12.7665C15.1229 13.1161 14.8323 13.406 14.4818 13.406H14.2682V14.6851H15.3365C16.687 14.6851 17.2596 14.1138 17.2596 12.7665V8.50293C17.2596 7.15564 16.687 6.58432 15.3365 6.58432H14.2681ZM7.43055 13.406L12.9861 13.406V16.1773C12.9861 17.5246 12.4135 18.096 11.063 18.096H9.35362C8.0032 18.096 7.43055 17.5246 7.43055 16.1773V15.3275L7.43055 15.3246V13.406ZM6.1485 15.9642V16.1773C6.1485 18.2409 7.28525 19.375 9.35362 19.375H11.063C13.1314 19.375 14.2682 18.2409 14.2682 16.1773V15.9642H15.3365C17.4049 15.9642 18.5417 14.8301 18.5417 12.7665V8.50293C18.5417 6.43936 17.4049 5.30525 15.3365 5.30525H14.9092V4.23936C14.9092 2.05642 13.8921 1.04169 11.704 1.04169H8.71259C6.52455 1.04169 5.50746 2.05642 5.50746 4.23936V5.30525H5.08013C3.01175 5.30525 1.875 6.43936 1.875 8.50293V12.7665C1.875 14.8301 3.01175 15.9642 5.08013 15.9642H6.1485ZM6.78951 5.30525H13.6271V4.23936C13.6271 2.78975 13.157 2.32076 11.704 2.32076H8.71259C7.2596 2.32076 6.78951 2.78975 6.78951 4.23936V5.30525ZM5.93482 9.99518H8.49893C8.84935 9.99518 9.13995 9.70526 9.13995 9.35564C9.13995 9.00603 8.84935 8.71611 8.49893 8.71611H5.93482C5.5844 8.71611 5.2938 9.00603 5.2938 9.35564C5.2938 9.70526 5.5844 9.99518 5.93482 9.99518Z" fill="black"/>
</mask>
<g mask="url(#mask0_1517_8399)">
<rect width="20" height="20" fill="currentColor"/>
</g>
</g>
<defs>
<clipPath id="clip0_1517_8399">
<rect width="20" height="20" fill="currentColor"/>
</clipPath>
</defs>
</svg>
