<svg width="24" height="24" viewBox="0 0 24 24" fill="none" xmlns="http://www.w3.org/2000/svg">
<g id="Receipt">
<mask id="mask0_114_3070" style="mask-type:alpha" maskUnits="userSpaceOnUse" x="2" y="1" width="20" height="22">
<path id="vector" fill-rule="evenodd" clip-rule="evenodd" d="M7.22442 1.00004C7.27124 1.00006 7.31875 1.00008 7.36697 1.00008H16.633C16.6812 1.00008 16.7288 1.00006 16.7756 1.00004C17.7662 0.999586 18.448 0.999272 19.0222 1.2091C20.1067 1.60536 20.9486 2.52184 21.3096 3.6764L20.6153 3.9158L21.3096 3.6764C21.5006 4.28741 21.5003 5.01375 21.5 6.09226C21.4999 6.14053 21.4999 6.1895 21.4999 6.2392V20.569C21.4999 22.0683 19.8172 22.9609 18.709 21.8958C18.6316 21.8214 18.5222 21.8214 18.4448 21.8958L17.9741 22.3482C17.0697 23.2173 15.6995 23.2173 14.7951 22.3482C14.4492 22.0158 13.9354 22.0158 13.5895 22.3482C12.6851 23.2173 11.3149 23.2173 10.4105 22.3482C10.0646 22.0158 9.55077 22.0158 9.20489 22.3482C8.30051 23.2173 6.93032 23.2173 6.02594 22.3482L5.55523 21.8958C5.4778 21.8214 5.36845 21.8214 5.29101 21.8958C4.18275 22.9609 2.50007 22.0683 2.50007 20.569V6.2392C2.50007 6.1895 2.50005 6.14053 2.50003 6.09227C2.49966 5.01375 2.49941 4.28741 2.69043 3.6764C3.05139 2.52184 3.89334 1.60536 4.97776 1.2091C5.55196 0.999272 6.23375 0.999586 7.22442 1.00004ZM7.36697 2.53496C6.17721 2.53496 5.76739 2.54569 5.45806 2.65873C4.8156 2.89349 4.30176 3.44279 4.07903 4.1552C3.9708 4.50139 3.96159 4.9579 3.96159 6.2392V20.569C3.96159 20.6908 4.01998 20.7652 4.09323 20.8008C4.13139 20.8193 4.16871 20.8241 4.19981 20.8198C4.22723 20.8159 4.26271 20.8035 4.30435 20.7635C4.94029 20.1523 5.90595 20.1523 6.54189 20.7635L7.0126 21.2158C7.35848 21.5482 7.87235 21.5482 8.21823 21.2158C9.12261 20.3467 10.4928 20.3467 11.3972 21.2158C11.7431 21.5482 12.2569 21.5482 12.6028 21.2158C13.5072 20.3467 14.8774 20.3467 15.7818 21.2158C16.1276 21.5482 16.6415 21.5482 16.9874 21.2158L17.4581 20.7635C18.094 20.1523 19.0597 20.1523 19.6956 20.7635C19.7373 20.8035 19.7728 20.8159 19.8002 20.8198C19.8313 20.8241 19.8686 20.8193 19.9068 20.8008C19.98 20.7652 20.0384 20.6908 20.0384 20.569V6.2392C20.0384 4.9579 20.0292 4.50139 19.921 4.1552C19.6982 3.44279 19.1844 2.89349 18.5419 2.65873C18.2326 2.54569 17.8228 2.53496 16.633 2.53496H7.36697ZM6.39747 7.39541C6.39747 6.97156 6.72465 6.62797 7.12824 6.62797H7.61541C8.019 6.62797 8.34618 6.97156 8.34618 7.39541C8.34618 7.81925 8.019 8.16285 7.61541 8.16285H7.12824C6.72465 8.16285 6.39747 7.81925 6.39747 7.39541ZM9.80771 7.39541C9.80771 6.97156 10.1349 6.62797 10.5385 6.62797H16.8718C17.2754 6.62797 17.6025 6.97156 17.6025 7.39541C17.6025 7.81925 17.2754 8.16285 16.8718 8.16285H10.5385C10.1349 8.16285 9.80771 7.81925 9.80771 7.39541ZM6.39747 10.9768C6.39747 10.5529 6.72465 10.2094 7.12824 10.2094H7.61541C8.019 10.2094 8.34618 10.5529 8.34618 10.9768C8.34618 11.4006 8.019 11.7442 7.61541 11.7442H7.12824C6.72465 11.7442 6.39747 11.4006 6.39747 10.9768ZM9.80771 10.9768C9.80771 10.5529 10.1349 10.2094 10.5385 10.2094H16.8718C17.2754 10.2094 17.6025 10.5529 17.6025 10.9768C17.6025 11.4006 17.2754 11.7442 16.8718 11.7442H10.5385C10.1349 11.7442 9.80771 11.4006 9.80771 10.9768ZM6.39747 14.5582C6.39747 14.1343 6.72465 13.7907 7.12824 13.7907H7.61541C8.019 13.7907 8.34618 14.1343 8.34618 14.5582C8.34618 14.982 8.019 15.3256 7.61541 15.3256H7.12824C6.72465 15.3256 6.39747 14.982 6.39747 14.5582ZM9.80771 14.5582C9.80771 14.1343 10.1349 13.7907 10.5385 13.7907H16.8718C17.2754 13.7907 17.6025 14.1343 17.6025 14.5582C17.6025 14.982 17.2754 15.3256 16.8718 15.3256H10.5385C10.1349 15.3256 9.80771 14.982 9.80771 14.5582Z" fill="black"/>
</mask>
<g mask="url(#mask0_114_3070)">
<rect id="color" y="-1.52588e-05" width="24" height="24" fill="currentColor"/>
</g>
</g>
</svg>
