<svg width="48" height="48" viewBox="0 0 48 48" fill="none" xmlns="http://www.w3.org/2000/svg">
<rect width="48" height="48" rx="24" fill="#F1F4FE"/>
<mask id="mask0_1488_9656" style="mask-type:alpha" maskUnits="userSpaceOnUse" x="13" y="15" width="22" height="18">
<path fill-rule="evenodd" clip-rule="evenodd" d="M18.5693 33H29.4307C33.3181 33 34.5 31.8324 34.4902 27.9892V20.7124C34.4967 20.674 34.5 20.6346 34.5 20.5946C34.5 20.5546 34.4967 20.5152 34.4902 20.4768V20.0011C34.4902 16.1676 33.3084 15 29.4209 15H18.5693C14.6819 15 13.5 16.1676 13.5 20.0011V20.5946V27.9989C13.5 31.8324 14.6819 33 18.5693 33ZM14.9655 19.8649C14.9821 16.969 15.5491 16.4595 18.5693 16.4595H29.4209C32.4412 16.4595 33.0081 16.969 33.0247 19.8649H14.9655ZM14.9651 21.3243H33.0251V27.9892C33.0251 31.0054 32.4879 31.5308 29.4209 31.5308H18.5693C15.5023 31.5308 14.9651 31.0054 14.9651 27.9892V21.3243ZM18.1395 29.1081H20.093C20.4935 29.1081 20.8256 28.7773 20.8256 28.3784C20.8256 27.9795 20.4935 27.6486 20.093 27.6486H18.1395C17.7391 27.6486 17.407 27.9795 17.407 28.3784C17.407 28.7773 17.7391 29.1081 18.1395 29.1081ZM26.4419 29.1081H22.5349C22.1344 29.1081 21.8023 28.7773 21.8023 28.3784C21.8023 27.9795 22.1344 27.6486 22.5349 27.6486H26.4419C26.8423 27.6486 27.1744 27.9795 27.1744 28.3784C27.1744 28.7773 26.8423 29.1081 26.4419 29.1081Z" fill="black"/>
</mask>
<g mask="url(#mask0_1488_9656)">
<rect x="12" y="12" width="24" height="24" fill="#4022F5"/>
</g>
</svg>
