<svg width="20" height="20" viewBox="0 0 20 20" fill="none" xmlns="http://www.w3.org/2000/svg">
<g id="Logo/&#208;&#161;&#208;&#145;&#208;&#159;">
<path id="path" d="M2 4.35327L4.422 8.68243V11.3231L2.00283 15.6438L2 4.35327Z" fill="#5B57A2"/>
<path id="path_2" d="M11.2998 7.10725L13.5693 5.71625L18.214 5.71191L11.2998 9.94758V7.10725Z" fill="#D90751"/>
<path id="path_3" d="M11.2869 4.32783L11.2997 10.0595L8.87207 8.56782V0L11.2871 4.32783H11.2869Z" fill="#FAB718"/>
<path id="path_4" d="M18.2139 5.71183L13.5691 5.71616L11.2869 4.32783L8.87207 0L18.2137 5.71183H18.2139Z" fill="#ED6F26"/>
<path id="path_5" d="M11.2997 15.6677V12.8869L8.87207 11.4236L8.8734 19.9999L11.2997 15.6677Z" fill="#63B22F"/>
<path id="path_6" d="M13.5633 14.2894L4.42183 8.68243L2 4.35327L18.2038 14.2838L13.5632 14.2894H13.5633Z" fill="#1487C9"/>
<path id="path_7" d="M8.87305 20.0001L11.299 15.6679L13.5629 14.2896L18.2034 14.2839L8.87305 20.0001Z" fill="#017F36"/>
<path id="path_8" d="M2.00293 15.6437L8.89176 11.4237L6.57576 10.0027L4.42209 11.323L2.00293 15.6437Z" fill="#984995"/>
</g>
</svg>
