<svg width="24" height="24" viewBox="0 0 24 24" fill="none" xmlns="http://www.w3.org/2000/svg">
<mask id="mask0_3_914" style="mask-type:alpha" maskUnits="userSpaceOnUse" x="3" y="3" width="18" height="18">
<path fill-rule="evenodd" clip-rule="evenodd" d="M4.99988 10.7314C4.99988 7.40956 7.66926 4.73803 10.9358 4.73803C14.2024 4.73803 16.8717 7.40956 16.8717 10.7314C16.8717 14.0532 14.2024 16.7247 10.9358 16.7247C7.66926 16.7247 4.99988 14.0532 4.99988 10.7314ZM10.9358 3C6.67928 3 3.25 6.47323 3.25 10.7314C3.25 14.9895 6.67928 18.4627 10.9358 18.4627C12.6453 18.4627 14.2214 17.9025 15.4955 16.9562L19.252 20.7411C19.5912 21.0828 20.1452 21.0868 20.4893 20.7499C20.8334 20.4129 20.8374 19.8627 20.4982 19.5209L16.7699 15.7645C17.925 14.4103 18.6216 12.6506 18.6216 10.7314C18.6216 6.47323 15.1923 3 10.9358 3Z" fill="black"/>
</mask>
<g mask="url(#mask0_3_914)">
<rect width="24" height="24" fill="currentColor"/>
</g>
</svg>
