<svg width="48" height="48" viewBox="0 0 48 48" fill="none" xmlns="http://www.w3.org/2000/svg">
<g clip-path="url(#clip0_267_20675)">
<mask id="mask0_267_20675" style="mask-type:alpha" maskUnits="userSpaceOnUse" x="24" y="16" width="4" height="16">
<path fill-rule="evenodd" clip-rule="evenodd" d="M27.6666 18.1406C27.6666 19.0467 26.9205 19.7812 26 19.7812C25.0795 19.7812 24.3333 19.0467 24.3333 18.1406C24.3333 17.2345 25.0795 16.5 26 16.5C26.9205 16.5 27.6666 17.2345 27.6666 18.1406ZM27.6666 24C27.6666 24.9061 26.9205 25.6406 26 25.6406C25.0795 25.6406 24.3333 24.9061 24.3333 24C24.3333 23.0939 25.0795 22.3594 26 22.3594C26.9205 22.3594 27.6666 23.0939 27.6666 24ZM26 31.5C26.9205 31.5 27.6666 30.7655 27.6666 29.8594C27.6666 28.9533 26.9205 28.2188 26 28.2188C25.0795 28.2188 24.3333 28.9533 24.3333 29.8594C24.3333 30.7655 25.0795 31.5 26 31.5Z" fill="black"/>
</mask>
<g mask="url(#mask0_267_20675)">
<rect x="16" y="14" width="20" height="20" fill="#585A71"/>
</g>
</g>
<defs>
<clipPath id="clip0_267_20675">
<rect width="20" height="20" fill="white" transform="translate(16 14)"/>
</clipPath>
</defs>
</svg>
