<svg width="24" height="24" viewBox="0 0 24 24" fill="none" xmlns="http://www.w3.org/2000/svg">
<mask id="mask0_115_5266" style="mask-type:alpha" maskUnits="userSpaceOnUse" x="2" y="3" width="20" height="18">
<path fill-rule="evenodd" clip-rule="evenodd" d="M20.4105 8.36058C20.3559 8.3571 20.2964 8.35712 20.2348 8.35715L20.2194 8.35715H17.8015C15.8086 8.35715 14.1033 9.93821 14.1033 12C14.1033 14.0618 15.8086 15.6429 17.8015 15.6429H20.2194L20.2348 15.6429C20.2964 15.6429 20.3559 15.6429 20.4105 15.6394C21.22 15.5879 21.9359 14.9495 21.9961 14.0577C22.0001 13.9992 22 13.9362 22 13.8778L22 13.8619V10.1381L22 10.1222C22 10.0638 22.0001 10.0008 21.9961 9.94232C21.9359 9.05055 21.22 8.41209 20.4105 8.36058ZM17.5872 12.9714C18.1002 12.9714 18.5162 12.5365 18.5162 12C18.5162 11.4635 18.1002 11.0286 17.5872 11.0286C17.0741 11.0286 16.6581 11.4635 16.6581 12C16.6581 12.5365 17.0741 12.9714 17.5872 12.9714Z" fill="black"/>
<path fill-rule="evenodd" clip-rule="evenodd" d="M20.2341 17.1C20.3778 17.0963 20.4866 17.2304 20.4476 17.3699C20.2541 18.062 19.947 18.6518 19.4542 19.1485C18.7329 19.8755 17.8183 20.1981 16.6882 20.3512C15.5902 20.5 14.1872 20.5 12.4158 20.5H10.3794C8.60803 20.5 7.20501 20.5 6.10697 20.3512C4.97692 20.1981 4.06227 19.8755 3.34096 19.1485C2.61964 18.4215 2.29953 17.4997 2.1476 16.3608C1.99997 15.2541 1.99999 13.8401 2 12.0548V11.9452C1.99998 10.1599 1.99997 8.7459 2.1476 7.63924C2.29953 6.50031 2.61964 5.57848 3.34096 4.85149C4.06227 4.12451 4.97692 3.80188 6.10697 3.64876C7.205 3.49997 8.60802 3.49999 10.3794 3.5L12.4158 3.5C14.1872 3.49998 15.5902 3.49997 16.6882 3.64876C17.8183 3.80188 18.7329 4.12451 19.4542 4.85149C19.947 5.34817 20.2541 5.93804 20.4476 6.63012C20.4866 6.76959 20.3778 6.90376 20.2341 6.9L17.8015 6.90001C15.0673 6.90001 12.6575 9.07689 12.6575 12C12.6575 14.9231 15.0673 17.1 17.8015 17.1L20.2341 17.1ZM5.61446 7.38571C5.21522 7.38571 4.89157 7.71191 4.89157 8.11429C4.89157 8.51666 5.21522 8.84286 5.61446 8.84286H9.46988C9.86912 8.84286 10.1928 8.51666 10.1928 8.11429C10.1928 7.71191 9.86912 7.38571 9.46988 7.38571H5.61446Z" fill="black"/>
</mask>
<g mask="url(#mask0_115_5266)">
<rect y="-3.05176e-05" width="24" height="24" fill="currentColor"/>
</g>
</svg>
