<svg width="48" height="48" viewBox="0 0 48 48" fill="none" xmlns="http://www.w3.org/2000/svg">
<g clip-path="url(#clip0_1488_9670)">
<path d="M48 24C48 30.3652 45.4714 36.4697 40.9706 40.9706C36.4697 45.4714 30.3652 48 24 48C17.6348 48 11.5303 45.4714 7.02944 40.9706C2.52857 36.4697 3.20749e-07 30.3652 0 24C3.20749e-07 17.6348 2.52857 11.5303 7.02944 7.02944C11.5303 2.52856 17.6348 0 24 0C30.3652 0 36.4697 2.52856 40.9706 7.02944C45.4714 11.5303 48 17.6348 48 24Z" fill="#FB3F1D"/>
<path d="M32.2803 38.1976H27.3144V13.5329H25.0985C21.036 13.5329 18.9019 15.5842 18.9019 18.6216C18.9019 22.0682 20.3792 23.6693 23.4156 25.7215L25.919 27.4044L18.6963 38.1975H13.3202L19.8042 28.5533C16.0701 25.8852 13.9769 23.2999 13.9769 18.909C13.9769 13.4092 17.7939 9.67503 25.0576 9.67503H32.2803V38.1976Z" fill="white"/>
</g>
<defs>
<clipPath id="clip0_1488_9670">
<rect width="48" height="48" fill="white"/>
</clipPath>
</defs>
</svg>
