<svg width="20" height="20" viewBox="0 0 20 20" fill="none" xmlns="http://www.w3.org/2000/svg">
<g id="Logo/Yandex Pay" clip-path="url(#clip0_493_2308)">
<path id="path4170" d="M20 10C20 12.6522 18.9464 15.1957 17.0711 17.0711C15.1957 18.9464 12.6522 20 10 20C7.34783 20 4.8043 18.9464 2.92893 17.0711C1.05357 15.1957 1.33646e-07 12.6522 0 10C1.33646e-07 7.34783 1.05357 4.8043 2.92893 2.92893C4.8043 1.05357 7.34783 0 10 0C12.6522 0 15.1957 1.05357 17.0711 2.92893C18.9464 4.8043 20 7.34783 20 10Z" fill="#FB3F1D"/>
<path id="path4" d="M13.4498 15.9156H11.3807V5.6387H10.4574C8.76472 5.6387 7.87552 6.49338 7.87552 7.75897C7.87552 9.19508 8.49106 9.86219 9.75623 10.7173L10.7993 11.4185L7.78985 15.9156H5.5498L8.2515 11.8972C6.69561 10.7855 5.82347 9.7083 5.82347 7.87875C5.82347 5.58714 7.41388 4.03125 10.4404 4.03125H13.4498V15.9156Z" fill="white"/>
</g>
<defs>
<clipPath id="clip0_493_2308">
<rect width="20" height="20" fill="white"/>
</clipPath>
</defs>
</svg>
